<svg width="18" height="12" viewBox="0 0 18 12" fill="none" xmlns="http://www.w3.org/2000/svg">
<path d="M1.5 7H16.5C16.7344 7 16.9297 6.92188 17.0859 6.76562C17.2552 6.59635 17.3398 6.39453 17.3398 6.16016C17.3398 5.9388 17.2552 5.75 17.0859 5.59375C16.9297 5.42448 16.7344 5.33984 16.5 5.33984H1.5C1.26562 5.33984 1.0638 5.42448 0.894531 5.59375C0.738281 5.75 0.660156 5.9388 0.660156 6.16016C0.660156 6.39453 0.738281 6.59635 0.894531 6.76562C1.0638 6.92188 1.26562 7 1.5 7ZM1.5 2H16.5C16.7344 2 16.9297 1.92188 17.0859 1.76562C17.2552 1.59635 17.3398 1.39453 17.3398 1.16016C17.3398 0.938802 17.2552 0.75 17.0859 0.59375C16.9297 0.424479 16.7344 0.339844 16.5 0.339844H1.5C1.26562 0.339844 1.0638 0.424479 0.894531 0.59375C0.738281 0.75 0.660156 0.938802 0.660156 1.16016C0.660156 1.39453 0.738281 1.59635 0.894531 1.76562C1.0638 1.92188 1.26562 2 1.5 2ZM1.5 12H16.5C16.7344 12 16.9297 11.9219 17.0859 11.7656C17.2552 11.5964 17.3398 11.3945 17.3398 11.1602C17.3398 10.9388 17.2552 10.75 17.0859 10.5938C16.9297 10.4245 16.7344 10.3398 16.5 10.3398H1.5C1.26562 10.3398 1.0638 10.4245 0.894531 10.5938C0.738281 10.75 0.660156 10.9388 0.660156 11.1602C0.660156 11.3945 0.738281 11.5964 0.894531 11.7656C1.0638 11.9219 1.26562 12 1.5 12Z" fill="white"/>
</svg>
