<svg width="8" height="4" viewBox="0 0 8 4" fill="none" xmlns="http://www.w3.org/2000/svg">
<path d="M0.648438 0.845703L3.64844 3.8457C3.74219 3.94727 3.85938 3.99805 4 3.99805C4.14062 3.99805 4.25781 3.94727 4.35156 3.8457L7.35156 0.845703C7.45312 0.751953 7.50391 0.638672 7.50391 0.505859C7.50391 0.365234 7.45312 0.244141 7.35156 0.142578C7.25781 0.0488281 7.14062 0.00195312 7 0.00195312C6.85938 0.00195312 6.74219 0.0488281 6.64844 0.142578L4 2.79102L1.35156 0.142578C1.25781 0.0488281 1.14062 0.00195312 1 0.00195312C0.859375 0.00195312 0.742188 0.0488281 0.648438 0.142578C0.546875 0.244141 0.496094 0.365234 0.496094 0.505859C0.496094 0.638672 0.546875 0.751953 0.648438 0.845703Z" fill="#91A1B5"/>
</svg>
