<svg width="8" height="5" viewBox="0 0 8 5" fill="none" xmlns="http://www.w3.org/2000/svg">
<path d="M0.648438 1.34766C0.546875 1.25391 0.496094 1.14062 0.496094 1.00781C0.496094 0.867188 0.546875 0.746094 0.648438 0.644531C0.742188 0.550781 0.859375 0.503906 1 0.503906C1.14062 0.503906 1.25781 0.550781 1.35156 0.644531L4 3.29297L6.64844 0.644531C6.74219 0.550781 6.85938 0.503906 7 0.503906C7.14062 0.503906 7.25781 0.550781 7.35156 0.644531C7.45312 0.746094 7.50391 0.867188 7.50391 1.00781C7.50391 1.14062 7.45312 1.25391 7.35156 1.34766L4.35156 4.34766C4.25781 4.44922 4.14062 4.5 4 4.5C3.85938 4.5 3.74219 4.44922 3.64844 4.34766L0.648438 1.34766Z" fill="#555555"/>
</svg>
