<svg width="17" height="17" viewBox="0 0 17 17" fill="none" xmlns="http://www.w3.org/2000/svg">
<path d="M16.8927 15.768C16.0329 14.3135 14.8061 13.1076 13.3338 12.2698C11.8614 11.4319 10.1946 10.9912 8.49845 10.9912C6.80225 10.9912 5.13546 11.4319 3.66314 12.2698C2.19082 13.1076 0.964024 14.3135 0.104236 15.768C-0.00102398 15.9566 -0.027822 16.1787 0.0295835 16.3868C0.0566587 16.4928 0.106188 16.5918 0.174854 16.6772C0.243521 16.7625 0.329737 16.8323 0.427728 16.8819C0.554141 16.9531 0.697158 16.9901 0.842462 16.9891C0.986554 16.9952 1.12952 16.9614 1.25545 16.8915C1.38138 16.8216 1.48536 16.7183 1.5558 16.5931C2.26752 15.3884 3.2833 14.3895 4.50251 13.6955C5.72172 13.0015 7.10204 12.6365 8.50674 12.6365C9.91144 12.6365 11.2918 13.0015 12.511 13.6955C13.7302 14.3895 14.746 15.3884 15.4577 16.5931C15.5685 16.7804 15.7491 16.9167 15.9603 16.9723C16.1715 17.0279 16.3963 16.9984 16.5858 16.8901C16.6801 16.8401 16.7628 16.7709 16.8285 16.687C16.8943 16.6032 16.9415 16.5065 16.9673 16.4033C16.998 16.2978 17.0072 16.1872 16.9944 16.0781C16.9816 15.969 16.947 15.8636 16.8927 15.768Z" fill="#111111"/>
<path d="M8.49941 10.2C9.83597 10.2002 11.1192 9.67091 12.073 8.72594C13.0268 7.78097 13.5749 6.49588 13.5994 5.14718C13.5994 3.78206 13.0621 2.47286 12.1057 1.50757C11.1492 0.542291 9.85202 0 8.49941 0C7.14681 0 5.84961 0.542291 4.89317 1.50757C3.93673 2.47286 3.39941 3.78206 3.39941 5.14718C3.42392 6.49588 3.97204 7.78097 4.92583 8.72594C5.87962 9.67091 7.16285 10.2002 8.49941 10.2ZM5.09941 5.14718C5.09941 4.2371 5.45763 3.3643 6.09525 2.72078C6.73287 2.07725 7.59768 1.71573 8.49941 1.71573C9.40115 1.71573 10.266 2.07725 10.9036 2.72078C11.5412 3.3643 11.8994 4.2371 11.8994 5.14718C11.8994 6.05726 11.5412 6.93006 10.9036 7.57359C10.266 8.21711 9.40115 8.57864 8.49941 8.57864C7.59768 8.57864 6.73287 8.21711 6.09525 7.57359C5.45763 6.93006 5.09941 6.05726 5.09941 5.14718Z" fill="#111111"/>
</svg>
