<svg width="92" height="20" viewBox="0 0 92 20" fill="none" xmlns="http://www.w3.org/2000/svg">
<path d="M11.7589 1.22514V11.5419C11.7828 12.1367 11.6692 12.729 11.4271 13.2724C11.2348 13.6987 10.9516 14.0774 10.5974 14.3818C10.2896 14.6293 9.93633 14.814 9.55764 14.9253C8.89595 15.1391 8.184 15.1391 7.52231 14.9253C7.12213 14.8172 6.74654 14.6327 6.41615 14.3818C6.05874 14.0778 5.77183 13.6992 5.57546 13.2724C5.34294 12.7263 5.23341 12.1354 5.25468 11.5419V0.00488281H0.000413445V11.5419C-0.0106251 12.7279 0.199465 13.9055 0.619864 15.0141C1.00606 16.0113 1.59355 16.9177 2.34547 17.6765C3.11709 18.4277 4.03629 19.0095 5.04451 19.3848C6.16345 19.7957 7.34861 19.995 8.53998 19.9728C9.73203 19.9914 10.9172 19.7883 12.0354 19.3737C13.0437 18.9984 13.9629 18.4166 14.7345 17.6654C15.4878 16.9099 16.0723 16.0024 16.449 15.003C16.8605 13.8923 17.0667 12.7156 17.0574 11.5308V1.22514V0.00488281H11.7589V1.22514Z" fill="#111111"/>
<path d="M36.1161 0.00488281H35.9944L30.4636 8.77966C30.4636 8.77966 24.7558 0.00488281 24.7226 0.00488281H19.3135V19.9728H24.7226V9.55619L30.4304 17.6432L35.9612 9.55619V19.9728H41.3814V18.7525V1.22514V0.00488281H36.1161Z" fill="#111111"/>
<path d="M43.6602 1.22514V10.1996V18.7636V19.3183V19.9839H44.2907H48.306H48.9476V19.3405V10.1996L48.9587 1.22514V0.00488281H43.6602V1.22514Z" fill="#111111"/>
<path d="M91.2027 6.11735C90.6987 4.93333 89.9741 3.85655 89.0679 2.94468C88.157 2.03499 87.0838 1.30496 85.9042 0.792583C84.6801 0.269587 83.3633 0 82.0327 0C80.7021 0 79.3852 0.269587 78.1611 0.792583C76.9803 1.29677 75.9093 2.02788 75.0086 2.94468C74.1137 3.86131 73.3972 4.93727 72.8958 6.11735C72.3743 7.34498 72.1055 8.66561 72.1055 10C72.1055 11.3344 72.3743 12.655 72.8958 13.8826C73.4039 15.0645 74.1279 16.1406 75.0307 17.0553C75.9314 17.9721 77.0024 18.7032 78.1832 19.2074C79.4074 19.7304 80.7242 20 82.0548 20C83.3854 20 84.7022 19.7304 85.9264 19.2074C87.106 18.695 88.1791 17.965 89.09 17.0553C89.9962 16.1434 90.7208 15.0667 91.2249 13.8826C91.754 12.6541 92.0179 11.3271 91.9992 9.98891C92.0065 8.65675 91.7352 7.33785 91.2027 6.11735ZM86.4241 11.8859C86.1846 12.4726 85.8396 13.0103 85.4065 13.4722C84.9705 13.9335 84.4529 14.3097 83.88 14.5815C83.3067 14.8557 82.6789 14.996 82.0437 14.992C81.405 14.9962 80.7736 14.8559 80.1964 14.5815C79.6286 14.3121 79.1178 13.9355 78.6921 13.4722C78.2625 13.0097 77.9213 12.472 77.6855 11.8859C77.4326 11.2858 77.3046 10.6403 77.3094 9.98891C77.3206 8.70203 77.8142 7.46649 78.6921 6.52781C79.1203 6.06736 79.6305 5.69114 80.1964 5.41848C80.7736 5.14412 81.405 5.00382 82.0437 5.00803C82.6789 5.00396 83.3067 5.14429 83.88 5.41848C84.451 5.69357 84.968 6.06931 85.4065 6.52781C85.8441 6.98192 86.1897 7.51689 86.4241 8.10305C86.6686 8.70177 86.7963 9.34195 86.8002 9.98891C86.7994 10.6398 86.6716 11.2842 86.4241 11.8859Z" fill="#111111"/>
<path d="M65.2626 0.00488281H64.5879V0.681572V1.22514V5.28528H69.8532V1.22514V0.681572V0.00488281H69.2448H65.2626Z" fill="#111111"/>
<path d="M56.6243 0.00488281H55.9495H51.8899H51.8789H51.2041V0.681572V1.22514V5.28528V18.7636V19.3072V19.9839H51.8899H55.9495H56.6243V19.3072V18.7636V8.41358L64.5886 19.9839H69.1792H69.854V19.3072V18.7636V17.8096L60.2636 5.28528L56.6243 0.00488281Z" fill="#111111"/>
</svg>
