<svg width="93" height="20" viewBox="0 0 93 20" fill="none" xmlns="http://www.w3.org/2000/svg">
<path d="M11.8115 1.22307V11.5398C11.8355 12.1346 11.7215 12.7269 11.4782 13.2704C11.2851 13.6966 11.0006 14.0753 10.6449 14.3797C10.3356 14.6273 9.98079 14.8119 9.60042 14.9233C8.93576 15.1371 8.22063 15.1371 7.55597 14.9233C7.15401 14.8152 6.77673 14.6306 6.44486 14.3797C6.08585 14.0757 5.79766 13.6971 5.60042 13.2704C5.36685 12.7242 5.25683 12.1333 5.27819 11.5398V0.00280762H0.000415295V11.5398C-0.0106727 12.7258 0.200358 13.9034 0.622638 15.012C1.01056 16.0092 1.60068 16.9156 2.35597 17.6744C3.13104 18.4256 4.05436 19.0074 5.06708 19.3828C6.19103 19.7936 7.3815 19.9929 8.57819 19.9707C9.77559 19.9894 10.9661 19.7863 12.0893 19.3717C13.102 18.9964 14.0253 18.4145 14.8004 17.6633C15.5571 16.9078 16.1442 16.0003 16.5226 15.0009C16.936 13.8902 17.143 12.7136 17.1337 11.5287V1.22307V0.00280762H11.8115V1.22307Z" fill="white"/>
<path d="M36.2782 0.00305176H36.1559L30.6004 8.77783C30.6004 8.77783 24.8671 0.00305176 24.8337 0.00305176H19.4004V19.9709H24.8337V9.55436L30.5671 17.6414L36.1226 9.55436V19.9709H41.5671V18.7507V1.22331V0.00305176H36.2782Z" fill="white"/>
<path d="M43.8555 1.22331V10.1978V18.7618V19.3164V19.982H44.4888H48.5221H49.1666V19.3386V10.1978L49.1777 1.22331V0.00305176H43.8555V1.22331Z" fill="white"/>
<path d="M91.6105 6.1154C91.1041 4.93138 90.3763 3.8546 89.466 2.94273C88.5511 2.03303 87.4731 1.30301 86.2883 0.79063C85.0587 0.267634 83.7359 -0.00195313 82.3994 -0.00195312C81.0628 -0.00195312 79.7401 0.267634 78.5105 0.79063C77.3244 1.29482 76.2486 2.02593 75.3438 2.94273C74.445 3.85936 73.7253 4.93531 73.2216 6.1154C72.6978 7.34303 72.4277 8.66366 72.4277 9.99805C72.4277 11.3324 72.6978 12.6531 73.2216 13.8807C73.7319 15.0625 74.4593 16.1386 75.366 17.0534C76.2708 17.9702 77.3466 18.7013 78.5327 19.2055C79.7623 19.7285 81.0851 19.998 82.4216 19.998C83.7581 19.998 85.0809 19.7285 86.3105 19.2055C87.4954 18.6931 88.5733 17.9631 89.4883 17.0534C90.3985 16.1415 91.1264 15.0647 91.6327 13.8807C92.1642 12.6521 92.4293 11.3251 92.4105 9.98695C92.4178 8.65479 92.1453 7.3359 91.6105 6.1154ZM86.8105 11.8839C86.5698 12.4707 86.2234 13.0084 85.7883 13.4702C85.3503 13.9316 84.8304 14.3077 84.2549 14.5796C83.6791 14.8538 83.0485 14.9941 82.4105 14.99C81.7689 14.9942 81.1347 14.8539 80.5549 14.5796C79.9845 14.3102 79.4715 13.9335 79.0438 13.4702C78.6123 13.0078 78.2695 12.4701 78.0327 11.8839C77.7787 11.2839 77.6501 10.6384 77.6549 9.98695C77.6662 8.70007 78.162 7.46454 79.0438 6.52585C79.474 6.0654 79.9865 5.68918 80.5549 5.41653C81.1347 5.14216 81.7689 5.00187 82.4105 5.00607C83.0485 5.00201 83.6791 5.14234 84.2549 5.41653C84.8285 5.69161 85.3478 6.06736 85.7883 6.52585C86.2279 6.97996 86.575 7.51494 86.8105 8.1011C87.056 8.69981 87.1843 9.34 87.1883 9.98695C87.1874 10.6378 87.0591 11.2822 86.8105 11.8839Z" fill="white"/>
<path d="M65.5547 0.00305176H64.877V0.679741V1.22331V5.28345H70.1658V1.22331V0.679741V0.00305176H69.5547H65.5547Z" fill="white"/>
<path d="M56.878 0.00305176H56.2003H52.1225H52.1114H51.4336V0.679741V1.22331V5.28345V18.7618V19.3053V19.982H52.1225H56.2003H56.878V19.3053V18.7618V8.41175L64.878 19.982H69.4891H70.1669V19.3053V18.7618V17.8078L60.5336 5.28345L56.878 0.00305176Z" fill="white"/>
</svg>
